<?xml version="1.0" encoding="UTF-8" standalone="no"?>
<!-- Created with Inkscape (http://www.inkscape.org/) -->

<svg
   xmlns:dc="http://purl.org/dc/elements/1.1/"
   xmlns:cc="http://creativecommons.org/ns#"
   xmlns:rdf="http://www.w3.org/1999/02/22-rdf-syntax-ns#"
   xmlns:svg="http://www.w3.org/2000/svg"
   xmlns="http://www.w3.org/2000/svg"
   xmlns:sodipodi="http://sodipodi.sourceforge.net/DTD/sodipodi-0.dtd"
   xmlns:inkscape="http://www.inkscape.org/namespaces/inkscape"
   width="172.32306"
   height="172.32306"
   viewBox="0 0 172.32306 172.32306"
   id="svg2"
   version="1.1"
   inkscape:version="0.91 r13725"
   sodipodi:docname="jot.svg"
   inkscape:export-filename="/home/robbiew18/Random/Jot/jot.48.png"
   inkscape:export-xdpi="25.07"
   inkscape:export-ydpi="25.07">
  <defs
     id="defs4">
    <clipPath
       clipPathUnits="userSpaceOnUse"
       id="clipPath4425">
      <rect
         style="color:#000000;clip-rule:nonzero;display:inline;overflow:visible;visibility:visible;opacity:1;isolation:auto;mix-blend-mode:normal;color-interpolation:sRGB;color-interpolation-filters:linearRGB;solid-color:#000000;solid-opacity:1;fill:none;fill-opacity:1;fill-rule:nonzero;stroke:#000000;stroke-width:10;stroke-linecap:round;stroke-linejoin:round;stroke-miterlimit:4;stroke-dasharray:none;stroke-dashoffset:0;stroke-opacity:1;color-rendering:auto;image-rendering:auto;shape-rendering:auto;text-rendering:auto;enable-background:accumulate"
         id="rect4427"
         width="172.32306"
         height="172.32306"
         x="-758.30927"
         y="481.61731" />
    </clipPath>
  </defs>
  <sodipodi:namedview
     id="base"
     pagecolor="#ffffff"
     bordercolor="#666666"
     borderopacity="1.0"
     inkscape:pageopacity="0.0"
     inkscape:pageshadow="2"
     inkscape:zoom="1.8725875"
     inkscape:cx="188.65458"
     inkscape:cy="88.729035"
     inkscape:document-units="px"
     inkscape:current-layer="layer1"
     showgrid="false"
     units="px"
     fit-margin-top="0"
     fit-margin-left="0"
     fit-margin-right="0"
     fit-margin-bottom="0" />
  <metadata
     id="metadata7">
    <rdf:RDF>
      <cc:Work
         rdf:about="">
        <dc:format>image/svg+xml</dc:format>
        <dc:type
           rdf:resource="http://purl.org/dc/dcmitype/StillImage" />
        <dc:title />
      </cc:Work>
    </rdf:RDF>
  </metadata>
  <g
     inkscape:label="Layer 1"
     inkscape:groupmode="layer"
     id="layer1"
     transform="translate(758.30927,-481.61731)">
    <rect
       style="color:#000000;clip-rule:nonzero;display:inline;overflow:visible;visibility:visible;opacity:1;isolation:auto;mix-blend-mode:normal;color-interpolation:sRGB;color-interpolation-filters:linearRGB;solid-color:#000000;solid-opacity:1;fill:#ffffff;fill-opacity:1;fill-rule:nonzero;stroke:#000000;stroke-width:14.333;stroke-linecap:round;stroke-linejoin:round;stroke-miterlimit:4;stroke-dasharray:none;stroke-dashoffset:0;stroke-opacity:1;color-rendering:auto;image-rendering:auto;shape-rendering:auto;text-rendering:auto;enable-background:accumulate"
       id="rect4394"
       width="172.32306"
       height="172.32306"
       x="-758.30927"
       y="481.61731" />
    <path
       style="color:#000000;clip-rule:nonzero;display:inline;overflow:visible;visibility:visible;opacity:0.28699999;isolation:auto;mix-blend-mode:normal;color-interpolation:sRGB;color-interpolation-filters:linearRGB;solid-color:#000000;solid-opacity:1;fill:none;fill-opacity:1;fill-rule:nonzero;stroke:#000000;stroke-width:10;stroke-linecap:round;stroke-linejoin:round;stroke-miterlimit:4;stroke-dasharray:none;stroke-dashoffset:0;stroke-opacity:1;color-rendering:auto;image-rendering:auto;shape-rendering:auto;text-rendering:auto;enable-background:accumulate"
       d="m -417.12144,520.56265 c 0,0 2.42278,6.86454 3.23037,13.72907 0.80759,6.86454 1.61518,40.37962 -6.86453,49.66693 -8.47972,9.28731 -22.61259,0.80759 -12.51769,-9.69111 10.09491,-10.4987 9.69111,-13.32527 26.24675,-17.76703 16.55565,-4.44175 33.51509,-6.05694 33.51509,-6.05694"
       id="path4147"
       inkscape:connector-curvature="0" />
    <path
       style="color:#000000;clip-rule:nonzero;display:inline;overflow:visible;visibility:visible;opacity:0.28699999;isolation:auto;mix-blend-mode:normal;color-interpolation:sRGB;color-interpolation-filters:linearRGB;solid-color:#000000;solid-opacity:1;fill:none;fill-opacity:1;fill-rule:nonzero;stroke:#000000;stroke-width:10;stroke-linecap:round;stroke-linejoin:round;stroke-miterlimit:4;stroke-dasharray:none;stroke-dashoffset:0;stroke-opacity:1;color-rendering:auto;image-rendering:auto;shape-rendering:auto;text-rendering:auto;enable-background:accumulate"
       d="m -421.96699,494.31591 c 0,-4.84556 12.51768,-9.69111 12.51768,-9.69111"
       id="path4149"
       inkscape:connector-curvature="0" />
    <path
       style="color:#000000;clip-rule:nonzero;display:inline;overflow:visible;visibility:visible;opacity:1;isolation:auto;mix-blend-mode:normal;color-interpolation:sRGB;color-interpolation-filters:linearRGB;solid-color:#000000;solid-opacity:1;fill:none;fill-opacity:1;fill-rule:nonzero;stroke:none;stroke-width:10;stroke-linecap:round;stroke-linejoin:round;stroke-miterlimit:4;stroke-dasharray:none;stroke-dashoffset:0;stroke-opacity:1;color-rendering:auto;image-rendering:auto;shape-rendering:auto;text-rendering:auto;enable-background:accumulate"
       id="path4169"
       d="m -361.75324,480.58531 c 7.22163,3.56335 6.67387,3.17714 14.1051,7.36784 3.45843,1.95032 7.98316,4.46532 11.18472,7.03419 2.64905,2.12555 3.44521,3.43735 5.48577,6.04341 0.79792,1.03715 3.34288,4.38372 4.22915,5.38456 0.81733,0.92301 1.75912,1.73095 2.57259,2.65737 1.25595,1.43033 4.72717,5.9509 5.68651,7.32024 1.15599,1.65005 2.21573,3.36549 3.3236,5.04823 2.7048,5.26898 4.30751,7.54231 5.49729,13.57042 1.14379,5.79503 0.64688,9.61929 0.32305,15.38363 -0.40858,7.27301 -0.19095,4.61287 -0.97362,11.22276 -0.10194,1.40989 0.0249,2.85533 -0.30581,4.22967 -1.29168,5.36798 -6.36146,9.36282 -10.28621,12.84543 0,0 -2.11512,-2.52358 -2.11512,-2.52358 l 0,0 c 2.18589,-1.72421 3.79958,-2.87873 5.74615,-4.91805 0.79625,-0.83419 1.64335,-1.65996 2.20042,-2.66971 0.98461,-1.78472 1.39111,-5.4548 1.69193,-7.26314 0.13008,-1.69297 0.20179,-3.39144 0.39024,-5.0789 0.22171,-1.98523 0.69925,-3.94098 0.83962,-5.93361 0.34061,-4.83504 0.0577,-9.63108 -0.74441,-14.4097 -0.39802,-2.3713 -0.81709,-4.76208 -1.61487,-7.03035 -0.72545,-2.06262 -1.94873,-3.91474 -2.9231,-5.87211 -1.12644,-1.58999 -2.20238,-3.21697 -3.3793,-4.76997 -3.97115,-5.24009 -1.97561,-2.25743 -6.00183,-6.81071 -0.84463,-0.9552 -1.59962,-1.9861 -2.40807,-2.97212 -3.52505,-4.29934 -0.94337,-1.0128 -4.30095,-5.37825 -1.647,-2.03113 -2.79696,-3.6557 -4.85721,-5.33005 -3.42666,-2.78481 -6.94171,-4.62878 -10.87522,-6.70557 -4.31028,-2.27571 -9.7021,-4.83878 -14.13774,-6.98257 0,0 1.64732,-3.45936 1.64732,-3.45936 z"
       inkscape:connector-curvature="0" />
    <g
       inkscape:groupmode="maskhelper"
       id="g4429"
       clip-path="url(#clipPath4425)">
      <path
         sodipodi:nodetypes="ccccccscsccsccccscscssscsscsscssccssscscccccccsccscccsccccc"
         inkscape:connector-curvature="0"
         d="m -629.01652,552.86328 c 0.67234,1.24868 1.36633,2.48486 2.02732,3.73964 1.27251,2.37764 2.49641,4.78006 3.5561,7.2604 0.79247,2.0683 1.52894,4.16678 2.03764,6.32565 0.0338,0.14329 0.70276,3.40906 0.75179,3.64802 0.72084,3.92656 1.32656,7.87296 1.79664,11.83722 0.24111,2.85698 0.46926,5.72779 0.44651,8.59771 -0.0115,1.45205 -0.1013,2.9517 -0.17364,4.40172 -0.3903,3.74813 -0.85382,7.52464 -1.88632,11.16072 -0.20892,0.73574 -0.47196,1.45504 -0.70795,2.18256 -1.24599,3.5641 -2.96309,6.93848 -4.80843,10.22404 -1.08597,1.84631 -2.39403,3.54859 -4.05441,4.91606 -0.97461,0.80267 -1.62858,1.18029 -2.66885,1.84493 -2.88775,1.75994 -5.93563,2.37384 -9.24986,2.69361 -2.80165,0.16307 -5.65887,-0.0575 -8.23968,-1.25234 -0.50135,-0.23213 -0.97459,-0.52071 -1.46188,-0.78107 -2.74442,-1.71196 -5.10151,-4.20427 -5.95145,-7.41072 -0.22027,-0.83098 -0.26699,-1.69849 -0.40048,-2.54773 -0.12559,-4.26311 0.91373,-8.45518 3.17533,-12.09374 0.53192,-0.85579 1.17202,-1.6394 1.75804,-2.45909 0.70174,-0.77021 1.35674,-1.58575 2.10523,-2.31062 0.80105,-0.77577 1.66882,-1.48064 2.5349,-2.18308 2.71047,-2.19833 5.63088,-4.06406 8.76402,-5.60435 1.17789,-0.57907 2.39544,-1.07371 3.59316,-1.61057 1.22277,-0.48382 2.42731,-1.01649 3.66829,-1.45145 2.41092,-0.84502 5.93044,-1.79164 8.38685,-2.42627 4.49877,-1.1623 9.02993,-2.18031 13.56782,-3.17528 1.58946,-0.31674 3.1795,-0.63059 4.76838,-0.95022 4.40796,-0.88676 4.86232,-1.05033 9.317,-1.72945 4.52519,-0.68986 9.0725,-1.14787 13.62794,-1.57547 5.44955,-0.2886 2.72665,-0.3363 8.14986,-0.42238 21.9524,-0.34843 23.84954,2.71299 -10.03919,7.18396 -7.58096,1.00016 -16.3691,2.57811 -23.82198,4.24044 -8.13187,1.87148 -16.31869,3.7572 -24.0026,7.09172 -1.01303,0.48637 -2.04506,0.93498 -3.03908,1.4591 -1.90739,1.00569 -3.38613,1.96756 -5.12364,3.22557 -1.45834,1.05588 -2.69252,2.02923 -3.96189,3.29961 -0.51161,0.51203 -0.96694,1.07735 -1.45041,1.61602 -0.37166,0.53039 -0.77718,1.0386 -1.11497,1.59117 -1.27128,2.07959 -1.93687,4.59337 -1.96,7.0205 0.0303,0.2458 0.0399,0.49502 0.0908,0.7374 0.23682,1.12865 1.14084,1.88445 2.08265,2.44664 0.80911,0.38167 1.63231,0.71255 2.52716,0.82415 0.29338,0.0366 0.59034,0.0379 0.88411,0.0712 0.0715,0.008 0.13946,0.0353 0.20918,0.053 1.8501,-0.0617 3.66953,-0.35908 5.34533,-1.18698 0.2045,-0.12018 1.27925,-0.74315 1.53833,-0.9244 1.01768,-0.71197 1.75,-1.72091 2.47297,-2.71215 1.69983,-2.63814 3.33046,-5.34388 4.43228,-8.29582 0.39475,-1.21719 0.75156,-2.2479 1.06398,-3.49062 0.63962,-2.54418 0.91157,-5.156 1.1471,-7.76266 0.25213,-3.85149 0.1866,-7.71347 -0.25183,-11.55162 -0.43311,-3.70903 -1.09797,-7.38774 -1.84833,-11.04421 -0.16819,-0.76365 -0.49436,-2.29395 -0.70794,-3.08793 -0.4709,-1.7506 -1.11732,-3.44828 -1.79435,-5.12749 -0.96786,-2.11338 -2.04146,-4.19267 -3.28493,-6.15728 -0.71947,-1.05406 -1.39699,-2.14156 -2.22116,-3.11869 -2.59819,-4.15708 5.80037,-9.40622 8.39856,-5.24914 z"
         id="path4225-5"
         style="color:#000000;clip-rule:nonzero;display:inline;overflow:visible;visibility:visible;opacity:1;isolation:auto;mix-blend-mode:normal;color-interpolation:sRGB;color-interpolation-filters:linearRGB;solid-color:#000000;solid-opacity:1;fill:#000000;fill-opacity:1;fill-rule:nonzero;stroke:none;stroke-width:10;stroke-linecap:round;stroke-linejoin:round;stroke-miterlimit:4;stroke-dasharray:none;stroke-dashoffset:0;stroke-opacity:1;color-rendering:auto;image-rendering:auto;shape-rendering:auto;text-rendering:auto;enable-background:accumulate" />
    </g>
    <path
       style="color:#000000;clip-rule:nonzero;display:inline;overflow:visible;visibility:visible;opacity:1;isolation:auto;mix-blend-mode:normal;color-interpolation:sRGB;color-interpolation-filters:linearRGB;solid-color:#000000;solid-opacity:1;fill:#000000;fill-opacity:1;fill-rule:nonzero;stroke:none;stroke-width:10;stroke-linecap:round;stroke-linejoin:round;stroke-miterlimit:4;stroke-dasharray:none;stroke-dashoffset:0;stroke-opacity:1;color-rendering:auto;image-rendering:auto;shape-rendering:auto;text-rendering:auto;enable-background:accumulate"
       id="path4245-3"
       d="m -647.2177,528.88548 c 1.61703,-2.82264 4.25645,-4.64459 6.85093,-6.48474 1.17106,-0.83058 2.37714,-1.61073 3.55818,-2.42707 1.0646,-0.73586 2.11907,-1.48628 3.1786,-2.22942 3.03534,-2.24513 7.57121,3.88718 4.53587,6.13232 l 0,0 c -2.44075,1.53719 -3.82851,2.27709 -6.01371,4.20009 -1.23304,1.08508 -2.12273,1.97164 -2.75861,3.4163 -0.0787,0.17879 -0.0581,0.38633 -0.0872,0.5795 -1.57747,4.58548 -10.84154,1.39851 -9.26407,-3.18698 z"
       inkscape:connector-curvature="0" />
    <path
       style="color:#000000;clip-rule:nonzero;display:inline;overflow:visible;visibility:visible;opacity:1;isolation:auto;mix-blend-mode:normal;color-interpolation:sRGB;color-interpolation-filters:linearRGB;solid-color:#000000;solid-opacity:1;fill:#000000;fill-opacity:1;fill-rule:nonzero;stroke:none;stroke-width:10;stroke-linecap:round;stroke-linejoin:round;stroke-miterlimit:4;stroke-dasharray:none;stroke-dashoffset:0;stroke-opacity:1;color-rendering:auto;image-rendering:auto;shape-rendering:auto;text-rendering:auto;enable-background:accumulate"
       id="path4343"
       d="m -412.43801,522.51351 c -0.0129,0.0545 -0.0411,0.10752 -0.0387,0.16348 0.0335,0.81157 0.13363,1.61908 0.18899,2.42946 0.10123,1.482 0.1671,2.966 0.24469,4.44935 0.13461,3.59555 0.28984,7.18956 0.45836,10.7836 0.24538,4.37695 0.46583,8.75609 0.65695,13.13584 0.22931,4.13419 0.32995,8.27493 0.37361,12.41488 -0.0372,2.63843 0.0656,5.27889 0.005,7.91703 -0.0306,1.325 -0.10813,2.49296 -0.18356,3.81301 -0.26128,2.79451 -0.77901,5.58383 -1.82839,8.19821 -0.18651,0.46467 -0.40922,0.91397 -0.61383,1.37096 -0.79126,1.58155 -1.79367,3.21168 -2.99321,4.52444 -0.25559,0.27971 -0.53721,0.53449 -0.80581,0.80173 -2.07848,1.81328 -4.7071,2.28188 -7.36122,2.52078 -2.7572,0.14322 -5.56327,-0.25731 -8.012,-1.59849 -0.51745,-0.28342 -0.99545,-0.63356 -1.49317,-0.95033 -2.04149,-1.48752 -3.77239,-3.42565 -4.94195,-5.6751 -0.23779,-0.45735 -0.42793,-0.93793 -0.6419,-1.40689 -0.58961,-1.73949 -1.09221,-3.55357 -1.17938,-5.39977 -0.053,-1.12148 0.0218,-1.50727 0.12599,-2.60936 0.3993,-2.99026 1.81798,-5.19899 3.60789,-7.54076 2.13317,-2.47032 4.70078,-4.56605 7.43546,-6.34184 0.63338,-0.41129 1.28923,-0.78689 1.93385,-1.18034 4.70902,-2.68736 9.71481,-4.83141 14.74259,-6.84434 5.23148,-2.09087 10.46436,-4.21707 15.86023,-5.85692 1.31125,-0.39849 2.637,-0.7476 3.9555,-1.1214 7.22434,-2.07296 14.44642,-4.1868 21.76013,-5.9291 1.63532,-0.38958 3.27916,-0.74251 4.91874,-1.11377 4.61794,-0.92862 9.23091,-1.86126 13.82263,-2.91146 3.54756,-0.87254 5.31036,6.29463 1.76279,7.16717 l 0,0 c -1.36106,0.15976 -2.72707,0.28184 -4.08318,0.4793 -3.8864,0.56587 -5.63695,0.9976 -9.50434,1.80938 -4.6675,1.12242 -4.74832,1.09372 -9.33921,2.38735 -1.91947,0.54087 -6.78567,1.9905 -8.72395,2.60038 -1.38193,0.43482 -2.74966,0.914 -4.13208,1.34725 -1.26819,0.39744 -2.54613,0.76309 -3.81919,1.14464 -6.38331,2.16451 -12.69338,4.54431 -18.8432,7.3108 -4.51842,2.04897 -9.15422,3.917 -13.31526,6.65586 -2.0382,1.36994 -4.42556,2.96434 -6.11808,4.7554 -0.25402,0.26881 -0.47355,0.56823 -0.71033,0.85234 -0.72215,1.05694 -1.49202,2.14632 -1.75305,3.42141 -0.22555,1.10895 -0.10729,2.22342 0.25631,3.29636 0.50062,1.23081 1.25481,2.32431 2.35466,3.09462 0.48104,0.31655 0.95645,0.52417 1.51925,0.66451 0.18507,0.0462 0.38328,0.0414 0.5618,0.1086 0.0496,0.0186 -0.20502,0.0394 -0.15237,0.0454 0.23483,0.0267 0.47254,0.012 0.70881,0.018 0.0541,-0.003 1.05786,-0.0559 1.21999,-0.0831 0.1894,-0.0318 0.37076,-0.10234 0.55971,-0.13677 0.0623,-0.0114 0.13596,-0.0328 0.19005,1.3e-4 0.23391,0.14255 -0.28431,0.0977 0.077,0.10709 0.62276,-0.20452 1.68517,-1.80215 2.0909,-2.33836 1.16568,-2.01037 1.62612,-4.04664 1.96971,-6.33361 0.4008,-3.64521 0.36752,-7.30931 0.30984,-10.97218 -0.0231,-4.03418 -0.0387,-8.06866 -0.19717,-12.10058 -0.21568,-4.33148 -0.35369,-8.66793 -0.79686,-12.98458 -0.28969,-3.55217 -0.47804,-7.10911 -0.76015,-10.66098 -0.21525,-2.15412 -0.3367,-4.33402 -1.147,-6.36719 -0.65905,-4.8594 9.15841,-6.19089 9.81746,-1.3315 z"
       inkscape:connector-curvature="0" />
    <path
       style="color:#000000;clip-rule:nonzero;display:inline;overflow:visible;visibility:visible;opacity:1;isolation:auto;mix-blend-mode:normal;color-interpolation:sRGB;color-interpolation-filters:linearRGB;solid-color:#000000;solid-opacity:1;fill:#000000;fill-opacity:1;fill-rule:nonzero;stroke:none;stroke-width:10;stroke-linecap:round;stroke-linejoin:round;stroke-miterlimit:4;stroke-dasharray:none;stroke-dashoffset:0;stroke-opacity:1;color-rendering:auto;image-rendering:auto;shape-rendering:auto;text-rendering:auto;enable-background:accumulate"
       id="path4343-9"
       d="m -319.03456,643.60905 c -0.0129,0.0545 -0.0411,0.10752 -0.0387,0.16348 0.0335,0.81157 0.13363,1.61908 0.18899,2.42946 0.10123,1.482 0.1671,2.966 0.24469,4.44935 0.13461,3.59555 0.28984,7.18956 0.45836,10.7836 0.24538,4.37695 0.46583,8.75609 0.65695,13.13584 0.22931,4.13419 0.32995,8.27493 0.37361,12.41488 -0.0372,2.63843 0.0656,5.27889 0.005,7.91703 -0.0306,1.325 -0.10813,2.49296 -0.18356,3.81301 -0.26128,2.79451 -0.77901,5.58383 -1.82839,8.19821 -0.18651,0.46467 -0.40922,0.91397 -0.61383,1.37096 -0.79126,1.58155 -1.79367,3.21168 -2.99321,4.52444 -0.25559,0.27971 -0.53721,0.53449 -0.80581,0.80173 -2.07848,1.81328 -4.7071,2.28188 -7.36122,2.52078 -2.7572,0.14322 -5.56327,-0.25731 -8.012,-1.59849 -0.51745,-0.28342 -0.99545,-0.63356 -1.49317,-0.95033 -2.04149,-1.48752 -3.77239,-3.42565 -4.94195,-5.6751 -0.23779,-0.45735 -0.42793,-0.93793 -0.6419,-1.40689 -0.58961,-1.73949 -1.09221,-3.55357 -1.17938,-5.39977 -0.053,-1.12148 0.0218,-1.50727 0.12599,-2.60936 0.3993,-2.99026 1.81798,-5.19899 3.60789,-7.54076 2.13317,-2.47032 4.70078,-4.56605 7.43546,-6.34184 0.63338,-0.41129 1.28923,-0.78689 1.93385,-1.18034 4.70902,-2.68736 9.71481,-4.83141 14.74259,-6.84434 5.23148,-2.09087 10.46436,-4.21707 15.86023,-5.85692 1.31125,-0.39849 2.637,-0.7476 3.9555,-1.1214 7.22434,-2.07296 14.49983,-3.74775 21.76013,-5.7007 3.77999,-1.01678 8.25769,-1.58177 10.6366,-1.79082 21.09095,-1.85339 13.88397,3.28875 -3.72,6.99304 -4.6675,1.12242 -4.74832,1.09372 -9.33921,2.38735 -1.91947,0.54087 -6.78567,1.9905 -8.72395,2.60038 -1.38193,0.43482 -2.74966,0.914 -4.13208,1.34725 -1.26819,0.39744 -2.54613,0.76309 -3.81919,1.14464 -6.38331,2.16451 -12.69338,4.54431 -18.8432,7.3108 -4.51842,2.04897 -9.15422,3.917 -13.31526,6.65586 -2.0382,1.36994 -4.42556,2.96434 -6.11808,4.7554 -0.25402,0.26881 -0.47355,0.56823 -0.71033,0.85234 -0.72215,1.05694 -1.49202,2.14632 -1.75305,3.42141 -0.22555,1.10895 -0.10729,2.22342 0.25631,3.29636 0.50062,1.23081 1.25481,2.32431 2.35466,3.09462 0.48104,0.31655 0.95645,0.52417 1.51925,0.66451 0.18507,0.0462 0.38328,0.0414 0.5618,0.1086 0.0496,0.0186 -0.20502,0.0394 -0.15237,0.0454 0.23483,0.0267 0.47254,0.012 0.70881,0.018 0.0541,-0.003 1.05786,-0.0559 1.21999,-0.0831 0.1894,-0.0318 0.37076,-0.10234 0.55971,-0.13677 0.0623,-0.0114 0.13596,-0.0328 0.19005,1.3e-4 0.23391,0.14255 -0.28431,0.0977 0.077,0.10709 0.62276,-0.20452 1.68517,-1.80215 2.0909,-2.33836 1.16568,-2.01037 1.62612,-4.04664 1.96971,-6.33361 0.4008,-3.64521 0.36752,-7.30931 0.30984,-10.97218 -0.0231,-4.03418 -0.0387,-8.06866 -0.19717,-12.10058 -0.21568,-4.33148 -0.35369,-8.66793 -0.79686,-12.98458 -0.28969,-3.55217 -0.47804,-7.10911 -0.76015,-10.66098 -0.21525,-2.15412 -0.3367,-4.33402 -1.147,-6.36719 -0.65905,-4.8594 9.15841,-6.19089 9.81746,-1.3315 z"
       inkscape:connector-curvature="0"
       sodipodi:nodetypes="ccsccccccscsccccsccccsccscsscssscccsccccccccccccccccccccc" />
    <path
       style="color:#000000;clip-rule:nonzero;display:inline;overflow:visible;visibility:visible;opacity:1;isolation:auto;mix-blend-mode:normal;color-interpolation:sRGB;color-interpolation-filters:linearRGB;solid-color:#000000;solid-opacity:1;fill:#000000;fill-opacity:1;fill-rule:nonzero;stroke:none;stroke-width:10;stroke-linecap:round;stroke-linejoin:round;stroke-miterlimit:4;stroke-dasharray:none;stroke-dashoffset:0;stroke-opacity:1;color-rendering:auto;image-rendering:auto;shape-rendering:auto;text-rendering:auto;enable-background:accumulate"
       id="path4245-3-7"
       d="m -331.63091,623.12331 c 1.61703,-2.82264 4.25645,-4.64459 6.85093,-6.48474 1.17106,-0.83058 2.37714,-1.61073 3.55818,-2.42707 1.0646,-0.73586 2.11907,-1.48628 3.1786,-2.22942 3.03534,-2.24513 7.57121,3.88718 4.53587,6.13232 l 0,0 c -2.44075,1.53719 -3.82851,2.27709 -6.01371,4.20009 -1.23304,1.08508 -2.12273,1.97164 -2.75861,3.4163 -0.0787,0.17879 -0.0581,0.38633 -0.0872,0.5795 -1.57747,4.58548 -10.84154,1.39851 -9.26407,-3.18698 z"
       inkscape:connector-curvature="0" />
  </g>
</svg>
