<?xml version="1.0" encoding="UTF-8" standalone="no"?>
<!-- Created with Inkscape (http://www.inkscape.org/) -->

<svg
   xmlns:dc="http://purl.org/dc/elements/1.1/"
   xmlns:cc="http://creativecommons.org/ns#"
   xmlns:rdf="http://www.w3.org/1999/02/22-rdf-syntax-ns#"
   xmlns:svg="http://www.w3.org/2000/svg"
   xmlns="http://www.w3.org/2000/svg"
   xmlns:sodipodi="http://sodipodi.sourceforge.net/DTD/sodipodi-0.dtd"
   xmlns:inkscape="http://www.inkscape.org/namespaces/inkscape"
   width="128"
   height="128"
   viewBox="0 0 128 128"
   id="svg2"
   version="1.1"
   inkscape:version="0.91 r13725"
   sodipodi:docname="jot.svg"
   inkscape:export-filename="/home/robbiew18/Random/Jot/jot.18.png"
   inkscape:export-xdpi="12.66"
   inkscape:export-ydpi="12.66">
  <defs
     id="defs4">
    <clipPath
       clipPathUnits="userSpaceOnUse"
       id="clipPath4425">
      <rect
         style="color:#000000;clip-rule:nonzero;display:inline;overflow:visible;visibility:visible;opacity:1;isolation:auto;mix-blend-mode:normal;color-interpolation:sRGB;color-interpolation-filters:linearRGB;solid-color:#000000;solid-opacity:1;fill:none;fill-opacity:1;fill-rule:nonzero;stroke:#000000;stroke-width:10;stroke-linecap:round;stroke-linejoin:round;stroke-miterlimit:4;stroke-dasharray:none;stroke-dashoffset:0;stroke-opacity:1;color-rendering:auto;image-rendering:auto;shape-rendering:auto;text-rendering:auto;enable-background:accumulate"
         id="rect4427"
         width="172.32306"
         height="172.32306"
         x="-758.30927"
         y="481.61731" />
    </clipPath>
  </defs>
  <sodipodi:namedview
     id="base"
     pagecolor="#ffffff"
     bordercolor="#666666"
     borderopacity="1.0"
     inkscape:pageopacity="1"
     inkscape:pageshadow="2"
     inkscape:zoom="2.476497"
     inkscape:cx="140.37981"
     inkscape:cy="76.428956"
     inkscape:document-units="px"
     inkscape:current-layer="layer1"
     showgrid="false"
     units="px"
     fit-margin-top="0"
     fit-margin-left="0"
     fit-margin-right="0"
     fit-margin-bottom="0" />
  <metadata
     id="metadata7">
    <rdf:RDF>
      <cc:Work
         rdf:about="">
        <dc:format>image/svg+xml</dc:format>
        <dc:type
           rdf:resource="http://purl.org/dc/dcmitype/StillImage" />
        <dc:title></dc:title>
      </cc:Work>
    </rdf:RDF>
  </metadata>
  <g
     inkscape:label="Layer 1"
     inkscape:groupmode="layer"
     id="layer1"
     transform="translate(762.30927,-485.61731)">
    <rect
       style="color:#000000;clip-rule:nonzero;display:inline;overflow:visible;visibility:visible;opacity:1;isolation:auto;mix-blend-mode:normal;color-interpolation:sRGB;color-interpolation-filters:linearRGB;solid-color:#000000;solid-opacity:1;fill:#ffffff;fill-opacity:1;fill-rule:nonzero;stroke:#000000;stroke-width:8;stroke-linecap:round;stroke-linejoin:round;stroke-miterlimit:4;stroke-dasharray:none;stroke-dashoffset:0;stroke-opacity:1;color-rendering:auto;image-rendering:auto;shape-rendering:auto;text-rendering:auto;enable-background:accumulate"
       id="rect4394"
       width="110"
       height="110"
       x="-753.30927"
       y="494.61731" />
    <path
       style="color:#000000;clip-rule:nonzero;display:inline;overflow:visible;visibility:visible;opacity:0.28699999;isolation:auto;mix-blend-mode:normal;color-interpolation:sRGB;color-interpolation-filters:linearRGB;solid-color:#000000;solid-opacity:1;fill:none;fill-opacity:1;fill-rule:nonzero;stroke:#000000;stroke-width:10;stroke-linecap:round;stroke-linejoin:round;stroke-miterlimit:4;stroke-dasharray:none;stroke-dashoffset:0;stroke-opacity:1;color-rendering:auto;image-rendering:auto;shape-rendering:auto;text-rendering:auto;enable-background:accumulate"
       d="m -569.88865,498.87124 c 0,0 1.61313,4.57054 2.15084,9.14107 0.5377,4.57054 1.07541,26.88549 -4.57053,33.06915 -5.64596,6.18366 -15.05588,0.53771 -8.33451,-6.45252 6.72137,-6.99022 6.45252,-8.87221 17.47557,-11.82961 11.02305,-2.9574 22.31496,-4.03282 22.31496,-4.03282"
       id="path4147"
       inkscape:connector-curvature="0" />
    <path
       style="color:#000000;clip-rule:nonzero;display:inline;overflow:visible;visibility:visible;opacity:0.28699999;isolation:auto;mix-blend-mode:normal;color-interpolation:sRGB;color-interpolation-filters:linearRGB;solid-color:#000000;solid-opacity:1;fill:none;fill-opacity:1;fill-rule:nonzero;stroke:#000000;stroke-width:10;stroke-linecap:round;stroke-linejoin:round;stroke-miterlimit:4;stroke-dasharray:none;stroke-dashoffset:0;stroke-opacity:1;color-rendering:auto;image-rendering:auto;shape-rendering:auto;text-rendering:auto;enable-background:accumulate"
       d="m -573.11491,481.39568 c 0,-3.22626 8.3345,-6.45251 8.3345,-6.45251"
       id="path4149"
       inkscape:connector-curvature="0" />
    <path
       style="color:#000000;clip-rule:nonzero;display:inline;overflow:visible;visibility:visible;opacity:1;isolation:auto;mix-blend-mode:normal;color-interpolation:sRGB;color-interpolation-filters:linearRGB;solid-color:#000000;solid-opacity:1;fill:none;fill-opacity:1;fill-rule:nonzero;stroke:none;stroke-width:10;stroke-linecap:round;stroke-linejoin:round;stroke-miterlimit:4;stroke-dasharray:none;stroke-dashoffset:0;stroke-opacity:1;color-rendering:auto;image-rendering:auto;shape-rendering:auto;text-rendering:auto;enable-background:accumulate"
       id="path4169"
       d="m -533.02349,472.2536 c 4.80829,2.37254 4.44358,2.1154 9.39143,4.90564 2.30269,1.29856 5.31534,2.97309 7.44699,4.68349 1.76379,1.41523 2.29389,2.28865 3.65253,4.02382 0.53127,0.69055 2.22575,2.91876 2.81585,3.58513 0.54419,0.61456 1.17125,1.1525 1.71287,1.76933 0.83624,0.95234 3.14744,3.96222 3.78619,4.87395 0.76968,1.09863 1.47527,2.2408 2.21291,3.3612 1.8009,3.50819 2.86802,5.02181 3.6602,9.03544 0.76155,3.85843 0.4307,6.4047 0.21509,10.2427 -0.27204,4.8425 -0.12714,3.07133 -0.64826,7.47232 -0.0679,0.93873 0.0166,1.90113 -0.20361,2.81619 -0.86002,3.5741 -4.23558,6.23394 -6.84875,8.55272 0,0 -1.40828,-1.68024 -1.40828,-1.68024 l 0,0 c 1.4554,-1.14801 2.52983,-1.91672 3.82589,-3.27453 0.53016,-0.55542 1.09417,-1.10523 1.46508,-1.77754 0.65557,-1.1883 0.92623,-3.63191 1.12652,-4.83594 0.0866,-1.12721 0.13435,-2.25808 0.25983,-3.38162 0.14762,-1.3218 0.46557,-2.62398 0.55903,-3.95071 0.22679,-3.21925 0.0384,-6.41254 -0.49564,-9.59424 -0.26501,-1.57885 -0.54403,-3.17068 -1.07521,-4.68093 -0.48302,-1.37333 -1.2975,-2.60651 -1.94625,-3.90976 -0.75001,-1.05865 -1.46639,-2.14192 -2.25,-3.17593 -2.64407,-3.48895 -1.3154,-1.50304 -3.99613,-4.5347 -0.56237,-0.63599 -1.06506,-1.32238 -1.60334,-1.97889 -2.34704,-2.86258 -0.62811,-0.67434 -2.86365,-3.58094 -1.0966,-1.35236 -1.86227,-2.43403 -3.23402,-3.54884 -2.28153,-1.85418 -4.62192,-3.08193 -7.24092,-4.46469 -2.86986,-1.51521 -6.45984,-3.22175 -9.41317,-4.64913 0,0 1.09682,-2.3033 1.09682,-2.3033 z"
       inkscape:connector-curvature="0" />
    <g
       id="g4153"
       inkscape:export-xdpi="33.75"
       inkscape:export-ydpi="33.75">
      <g
         transform="matrix(0.66581829,0,0,0.66581829,-251.50221,172.18553)"
         clip-path="url(#clipPath4425)"
         id="g4429"
         inkscape:groupmode="maskhelper">
        <path
           style="color:#000000;clip-rule:nonzero;display:inline;overflow:visible;visibility:visible;opacity:1;isolation:auto;mix-blend-mode:normal;color-interpolation:sRGB;color-interpolation-filters:linearRGB;solid-color:#000000;solid-opacity:1;fill:#000000;fill-opacity:1;fill-rule:nonzero;stroke:none;stroke-width:10;stroke-linecap:round;stroke-linejoin:round;stroke-miterlimit:4;stroke-dasharray:none;stroke-dashoffset:0;stroke-opacity:1;color-rendering:auto;image-rendering:auto;shape-rendering:auto;text-rendering:auto;enable-background:accumulate"
           id="path4225-5"
           d="m -629.01652,552.86328 c 0.67234,1.24868 1.36633,2.48486 2.02732,3.73964 1.27251,2.37764 2.49641,4.78006 3.5561,7.2604 0.79247,2.0683 1.52894,4.16678 2.03764,6.32565 0.0338,0.14329 0.70276,3.40906 0.75179,3.64802 0.72084,3.92656 1.32656,7.87296 1.79664,11.83722 0.24111,2.85698 0.46926,5.72779 0.44651,8.59771 -0.0115,1.45205 -0.1013,2.9517 -0.17364,4.40172 -0.3903,3.74813 -0.85382,7.52464 -1.88632,11.16072 -0.20892,0.73574 -0.47196,1.45504 -0.70795,2.18256 -1.24599,3.5641 -2.96309,6.93848 -4.80843,10.22404 -1.08597,1.84631 -2.39403,3.54859 -4.05441,4.91606 -0.97461,0.80267 -1.62858,1.18029 -2.66885,1.84493 -2.88775,1.75994 -5.93563,2.37384 -9.24986,2.69361 -2.80165,0.16307 -5.65887,-0.0575 -8.23968,-1.25234 -0.50135,-0.23213 -0.97459,-0.52071 -1.46188,-0.78107 -2.74442,-1.71196 -5.10151,-4.20427 -5.95145,-7.41072 -0.22027,-0.83098 -0.26699,-1.69849 -0.40048,-2.54773 -0.12559,-4.26311 0.91373,-8.45518 3.17533,-12.09374 0.53192,-0.85579 1.17202,-1.6394 1.75804,-2.45909 0.70174,-0.77021 1.35674,-1.58575 2.10523,-2.31062 0.80105,-0.77577 1.66882,-1.48064 2.5349,-2.18308 2.71047,-2.19833 5.63088,-4.06406 8.76402,-5.60435 1.17789,-0.57907 2.39544,-1.07371 3.59316,-1.61057 1.22277,-0.48382 2.42731,-1.01649 3.66829,-1.45145 2.41092,-0.84502 5.93044,-1.79164 8.38685,-2.42627 4.49877,-1.1623 9.02993,-2.18031 13.56782,-3.17528 1.58946,-0.31674 3.1795,-0.63059 4.76838,-0.95022 4.40796,-0.88676 4.86232,-1.05033 9.317,-1.72945 4.52519,-0.68986 9.0725,-1.14787 13.62794,-1.57547 5.44955,-0.2886 2.72665,-0.3363 8.14986,-0.42238 21.9524,-0.34843 23.84954,2.71299 -10.03919,7.18396 -7.58096,1.00016 -16.3691,2.57811 -23.82198,4.24044 -8.13187,1.87148 -16.31869,3.7572 -24.0026,7.09172 -1.01303,0.48637 -2.04506,0.93498 -3.03908,1.4591 -1.90739,1.00569 -3.38613,1.96756 -5.12364,3.22557 -1.45834,1.05588 -2.69252,2.02923 -3.96189,3.29961 -0.51161,0.51203 -0.96694,1.07735 -1.45041,1.61602 -0.37166,0.53039 -0.77718,1.0386 -1.11497,1.59117 -1.27128,2.07959 -1.93687,4.59337 -1.96,7.0205 0.0303,0.2458 0.0399,0.49502 0.0908,0.7374 0.23682,1.12865 1.14084,1.88445 2.08265,2.44664 0.80911,0.38167 1.63231,0.71255 2.52716,0.82415 0.29338,0.0366 0.59034,0.0379 0.88411,0.0712 0.0715,0.008 0.13946,0.0353 0.20918,0.053 1.8501,-0.0617 3.66953,-0.35908 5.34533,-1.18698 0.2045,-0.12018 1.27925,-0.74315 1.53833,-0.9244 1.01768,-0.71197 1.75,-1.72091 2.47297,-2.71215 1.69983,-2.63814 3.33046,-5.34388 4.43228,-8.29582 0.39475,-1.21719 0.75156,-2.2479 1.06398,-3.49062 0.63962,-2.54418 0.91157,-5.156 1.1471,-7.76266 0.25213,-3.85149 0.1866,-7.71347 -0.25183,-11.55162 -0.43311,-3.70903 -1.09797,-7.38774 -1.84833,-11.04421 -0.16819,-0.76365 -0.49436,-2.29395 -0.70794,-3.08793 -0.4709,-1.7506 -1.11732,-3.44828 -1.79435,-5.12749 -0.96786,-2.11338 -2.04146,-4.19267 -3.28493,-6.15728 -0.71947,-1.05406 -1.39699,-2.14156 -2.22116,-3.11869 -2.59819,-4.15708 5.80037,-9.40622 8.39856,-5.24914 z"
           inkscape:connector-curvature="0"
           sodipodi:nodetypes="ccccccscsccsccccscscssscsscsscssccssscscccccccsccscccsccccc" />
      </g>
      <path
         inkscape:connector-curvature="0"
         d="m -682.43159,524.32715 c 1.07665,-1.87936 2.83402,-3.09245 4.56148,-4.31765 0.77971,-0.55302 1.58274,-1.07246 2.3691,-1.61599 0.70883,-0.48995 1.41091,-0.98959 2.11637,-1.48439 2.02098,-1.49485 5.04105,2.58815 3.02006,4.08301 l 0,0 c -1.62509,1.02349 -2.54909,1.51613 -4.00403,2.7965 -0.82099,0.72246 -1.41336,1.31275 -1.83674,2.27463 -0.0524,0.11904 -0.0387,0.25723 -0.0581,0.38584 -1.05031,3.0531 -7.21849,0.93116 -6.16818,-2.12195 z"
         id="path4245-3"
         style="color:#000000;clip-rule:nonzero;display:inline;overflow:visible;visibility:visible;opacity:1;isolation:auto;mix-blend-mode:normal;color-interpolation:sRGB;color-interpolation-filters:linearRGB;solid-color:#000000;solid-opacity:1;fill:#000000;fill-opacity:1;fill-rule:nonzero;stroke:none;stroke-width:10;stroke-linecap:round;stroke-linejoin:round;stroke-miterlimit:4;stroke-dasharray:none;stroke-dashoffset:0;stroke-opacity:1;color-rendering:auto;image-rendering:auto;shape-rendering:auto;text-rendering:auto;enable-background:accumulate" />
    </g>
    <path
       style="color:#000000;clip-rule:nonzero;display:inline;overflow:visible;visibility:visible;opacity:1;isolation:auto;mix-blend-mode:normal;color-interpolation:sRGB;color-interpolation-filters:linearRGB;solid-color:#000000;solid-opacity:1;fill:#000000;fill-opacity:1;fill-rule:nonzero;stroke:none;stroke-width:10;stroke-linecap:round;stroke-linejoin:round;stroke-miterlimit:4;stroke-dasharray:none;stroke-dashoffset:0;stroke-opacity:1;color-rendering:auto;image-rendering:auto;shape-rendering:auto;text-rendering:auto;enable-background:accumulate"
       id="path4343"
       d="m -566.77034,500.17016 c -0.009,0.0363 -0.0274,0.0716 -0.0258,0.10885 0.0223,0.54036 0.089,1.07801 0.12583,1.61758 0.0674,0.98674 0.11126,1.97481 0.16292,2.96246 0.0896,2.39398 0.19298,4.78694 0.30518,7.17991 0.16338,2.91426 0.31016,5.82997 0.43741,8.74609 0.15268,2.75262 0.21969,5.5096 0.24876,8.26605 -0.0248,1.75671 0.0437,3.51478 0.003,5.2713 -0.0204,0.88221 -0.072,1.65986 -0.12222,2.53878 -0.17397,1.86063 -0.51868,3.71781 -1.21738,5.45851 -0.12418,0.30939 -0.27246,0.60854 -0.40869,0.91281 -0.52684,1.05303 -1.19426,2.1384 -1.99294,3.01246 -0.17018,0.18623 -0.35768,0.35587 -0.53652,0.5338 -1.38389,1.20732 -3.13408,1.51932 -4.90124,1.67839 -1.83579,0.0954 -3.70412,-0.17133 -5.33453,-1.06431 -0.34453,-0.1887 -0.66279,-0.42183 -0.99418,-0.63274 -1.35926,-0.99042 -2.51173,-2.28087 -3.29044,-3.77859 -0.15833,-0.30451 -0.28493,-0.62449 -0.42739,-0.93673 -0.39258,-1.15819 -0.72722,-2.36604 -0.78525,-3.59527 -0.0353,-0.7467 0.0145,-1.00357 0.0839,-1.73736 0.26586,-1.99097 1.21045,-3.46158 2.4022,-5.02077 1.4203,-1.64479 3.12987,-3.04016 4.95067,-4.22252 0.42171,-0.27384 0.85839,-0.52392 1.28759,-0.78589 3.13535,-1.78929 6.4683,-3.21684 9.81588,-4.55709 3.48322,-1.39214 6.96737,-2.8078 10.56004,-3.89964 0.87305,-0.26532 1.75576,-0.49777 2.63364,-0.74665 4.8101,-1.38021 9.61869,-2.78765 14.48829,-3.9477 1.08883,-0.25939 2.18333,-0.49438 3.27499,-0.74157 3.07471,-0.61829 6.14611,-1.23926 9.20336,-1.9385 2.36203,-0.58096 3.53573,4.19108 1.1737,4.77203 l 0,0 c -0.90622,0.10637 -1.81574,0.18765 -2.71866,0.31913 -2.58763,0.37676 -3.75318,0.66422 -6.32816,1.20471 -3.10771,0.74733 -3.16152,0.72822 -6.21822,1.58955 -1.27802,0.36012 -4.51802,1.32531 -5.80856,1.73138 -0.92012,0.28951 -1.83078,0.60855 -2.75122,0.89702 -0.84438,0.26462 -1.69526,0.50808 -2.54289,0.76212 -4.25012,1.44117 -8.45148,3.02569 -12.54614,4.86767 -3.00845,1.36424 -6.09505,2.60801 -8.86555,4.43159 -1.35707,0.91213 -2.94661,1.97371 -4.07353,3.16623 -0.16913,0.17898 -0.31529,0.37834 -0.47295,0.56751 -0.48082,0.70373 -0.99341,1.42905 -1.16721,2.27803 -0.15017,0.73836 -0.0714,1.4804 0.17066,2.19478 0.33332,0.81949 0.83547,1.54757 1.56777,2.06045 0.32029,0.21077 0.63682,0.34901 1.01155,0.44245 0.12322,0.0308 0.25519,0.0276 0.37405,0.0723 0.033,0.0124 -0.1365,0.0262 -0.10145,0.0302 0.15636,0.0178 0.31463,0.008 0.47194,0.012 0.036,-0.002 0.70434,-0.0372 0.81229,-0.0553 0.12611,-0.0212 0.24686,-0.0681 0.37267,-0.0911 0.0415,-0.008 0.0905,-0.0218 0.12654,9e-5 0.15574,0.0949 -0.1893,0.065 0.0513,0.0713 0.41464,-0.13617 1.12201,-1.1999 1.39215,-1.55692 0.77614,-1.33854 1.08271,-2.69433 1.31147,-4.21703 0.26686,-2.42705 0.24471,-4.86668 0.2063,-7.30548 -0.0154,-2.68603 -0.0258,-5.37226 -0.13128,-8.05679 -0.1436,-2.88398 -0.23549,-5.77127 -0.53056,-8.64537 -0.19288,-2.3651 -0.31829,-4.73338 -0.50612,-7.09828 -0.14332,-1.43425 -0.22419,-2.88566 -0.7637,-4.23939 -0.43881,-3.23547 6.09784,-4.122 6.53665,-0.88653 z"
       inkscape:connector-curvature="0" />
    <path
       style="color:#000000;clip-rule:nonzero;display:inline;overflow:visible;visibility:visible;opacity:1;isolation:auto;mix-blend-mode:normal;color-interpolation:sRGB;color-interpolation-filters:linearRGB;solid-color:#000000;solid-opacity:1;fill:#000000;fill-opacity:1;fill-rule:nonzero;stroke:none;stroke-width:10;stroke-linecap:round;stroke-linejoin:round;stroke-miterlimit:4;stroke-dasharray:none;stroke-dashoffset:0;stroke-opacity:1;color-rendering:auto;image-rendering:auto;shape-rendering:auto;text-rendering:auto;enable-background:accumulate"
       id="path4343-9"
       d="m -504.58061,580.79778 c -0.009,0.0363 -0.0274,0.0716 -0.0258,0.10885 0.0223,0.54036 0.089,1.07802 0.12583,1.61758 0.0674,0.98674 0.11126,1.97482 0.16292,2.96246 0.0896,2.39398 0.19298,4.78694 0.30519,7.17992 0.16338,2.91425 0.31016,5.82996 0.43741,8.74608 0.15268,2.75262 0.21968,5.5096 0.24875,8.26605 -0.0248,1.75672 0.0437,3.51479 0.003,5.27131 -0.0204,0.88221 -0.072,1.65986 -0.12222,2.53877 -0.17396,1.86064 -0.51867,3.71782 -1.21737,5.45852 -0.12418,0.30938 -0.27247,0.60854 -0.4087,0.91281 -0.52684,1.05302 -1.19426,2.13839 -1.99293,3.01245 -0.17018,0.18624 -0.35769,0.35588 -0.53653,0.53381 -1.38389,1.20731 -3.13407,1.51932 -4.90123,1.67838 -1.8358,0.0954 -3.70413,-0.17132 -5.33454,-1.0643 -0.34453,-0.18871 -0.66279,-0.42184 -0.99418,-0.63275 -1.35926,-0.99042 -2.51172,-2.28086 -3.29044,-3.77859 -0.15832,-0.30451 -0.28492,-0.62449 -0.42739,-0.93673 -0.39257,-1.15818 -0.72721,-2.36603 -0.78525,-3.59526 -0.0353,-0.74671 0.0145,-1.00357 0.0839,-1.73736 0.26586,-1.99097 1.21044,-3.46159 2.4022,-5.02078 1.4203,-1.64478 3.12986,-3.04016 4.95066,-4.22251 0.42172,-0.27385 0.85839,-0.52393 1.28759,-0.78589 3.13536,-1.7893 6.4683,-3.21685 9.81589,-4.55709 3.48321,-1.39214 6.96736,-2.8078 10.56003,-3.89965 0.87306,-0.26532 1.75576,-0.49776 2.63365,-0.74664 4.81009,-1.38022 9.65425,-2.49532 14.48829,-3.79563 2.51678,-0.677 5.49812,-1.05318 7.08204,-1.19237 14.04274,-1.23402 9.2442,2.18971 -2.47684,4.6561 -3.10771,0.74733 -3.16152,0.72822 -6.21822,1.58954 -1.27802,0.36012 -4.51802,1.32531 -5.80857,1.73138 -0.92011,0.28951 -1.83077,0.60856 -2.75121,0.89702 -0.84438,0.26463 -1.69526,0.50808 -2.54289,0.76213 -4.25012,1.44117 -8.45148,3.02568 -12.54614,4.86766 -3.00845,1.36424 -6.09505,2.60801 -8.86555,4.43159 -1.35707,0.91214 -2.94662,1.97372 -4.07353,3.16624 -0.16913,0.17898 -0.3153,0.37833 -0.47295,0.5675 -0.48082,0.70373 -0.99341,1.42906 -1.16721,2.27804 -0.15018,0.73836 -0.0714,1.48039 0.17066,2.19477 0.33332,0.8195 0.83547,1.54757 1.56777,2.06046 0.32029,0.21076 0.63682,0.349 1.01155,0.44244 0.12322,0.0308 0.25519,0.0276 0.37405,0.0723 0.033,0.0124 -0.1365,0.0262 -0.10145,0.0302 0.15636,0.0178 0.31463,0.008 0.47194,0.012 0.036,-0.002 0.70434,-0.0372 0.81229,-0.0553 0.12611,-0.0212 0.24686,-0.0681 0.37267,-0.0911 0.0415,-0.008 0.0905,-0.0218 0.12654,9e-5 0.15574,0.0949 -0.1893,0.0651 0.0513,0.0713 0.41465,-0.13618 1.12202,-1.19991 1.39216,-1.55692 0.77613,-1.33855 1.0827,-2.69433 1.31147,-4.21704 0.26686,-2.42705 0.2447,-4.86667 0.2063,-7.30548 -0.0154,-2.68603 -0.0258,-5.37226 -0.13128,-8.05678 -0.1436,-2.88398 -0.23549,-5.77127 -0.53056,-8.64537 -0.19289,-2.3651 -0.31829,-4.73338 -0.50613,-7.09828 -0.14331,-1.43425 -0.22418,-2.88567 -0.76369,-4.23939 -0.43881,-3.23548 6.09784,-4.12201 6.53664,-0.88654 z"
       inkscape:connector-curvature="0"
       sodipodi:nodetypes="ccsccccccscsccccsccccsccscsscssscccsccccccccccccccccccccc" />
    <path
       style="color:#000000;clip-rule:nonzero;display:inline;overflow:visible;visibility:visible;opacity:1;isolation:auto;mix-blend-mode:normal;color-interpolation:sRGB;color-interpolation-filters:linearRGB;solid-color:#000000;solid-opacity:1;fill:#000000;fill-opacity:1;fill-rule:nonzero;stroke:none;stroke-width:10;stroke-linecap:round;stroke-linejoin:round;stroke-miterlimit:4;stroke-dasharray:none;stroke-dashoffset:0;stroke-opacity:1;color-rendering:auto;image-rendering:auto;shape-rendering:auto;text-rendering:auto;enable-background:accumulate"
       id="path4245-3-7"
       d="m -512.96749,567.158 c 1.07665,-1.87936 2.83402,-3.09245 4.56147,-4.31765 0.77972,-0.55302 1.58275,-1.07246 2.3691,-1.61599 0.70883,-0.48995 1.41092,-0.98959 2.11637,-1.48439 2.02099,-1.49485 5.04105,2.58816 3.02007,4.08301 l 0,0 c -1.6251,1.02349 -2.54909,1.51613 -4.00404,2.7965 -0.82098,0.72246 -1.41335,1.31275 -1.83673,2.27463 -0.0524,0.11904 -0.0387,0.25723 -0.0581,0.38584 -1.05031,3.0531 -7.2185,0.93116 -6.16819,-2.12195 z"
       inkscape:connector-curvature="0" />
  </g>
</svg>
